<svg width="102" height="103" viewBox="0 0 102 103" fill="none" xmlns="http://www.w3.org/2000/svg">
<path d="M51.0007 102.5C78.9161 102.5 101.501 79.9152 101.501 52C101.501 24.0848 78.9161 1.5 51.0007 1.5C23.0853 1.5 0.500244 24.0848 0.500244 52C0.500244 79.9152 23.0853 102.5 51.0007 102.5Z" stroke="currentColor" stroke-width="2"/>
<path d="M51.0005 69.1C60.444 69.1 68.1005 61.4435 68.1005 52C68.1005 42.5565 60.444 34.9 51.0005 34.9C41.557 34.9 33.9004 42.5565 33.9004 52C33.9004 61.4435 41.557 69.1 51.0005 69.1Z" stroke="currentColor" stroke-width="2"/>
<path d="M79.5 52C79.5 67.75 66.75 80.5 51 80.5" stroke="currentColor" stroke-width="2" stroke-linecap="round"/>
<path d="M22.5 52C22.5 36.25 35.25 23.5 51 23.5" stroke="currentColor" stroke-width="2" stroke-linecap="round"/>
</svg>
