<svg xmlns="http://www.w3.org/2000/svg" xmlns:xlink="http://www.w3.org/1999/xlink" width="2000" zoomAndPan="magnify" viewBox="0 0 1500 1499.999933" height="2000" preserveAspectRatio="xMidYMid meet" version="1.0"><defs><filter x="0%" y="0%" width="100%" height="100%" id="a1d70027b4"><feColorMatrix values="0 0 0 0 1 0 0 0 0 1 0 0 0 0 1 0 0 0 1 0" color-interpolation-filters="sRGB"/></filter><mask id="ef9ff70b39"><g filter="url(#a1d70027b4)"><rect x="-150" width="1800" fill="#000000" y="-149.999993" height="1799.99992" fill-opacity="0.3"/></g></mask><clipPath id="ac8d4b3005"><path d="M 0.0390625 1 L 984 1 L 984 984.679688 L 0.0390625 984.679688 Z M 0.0390625 1 " clip-rule="nonzero"/></clipPath><clipPath id="a46f2d6ad5"><rect x="0" width="985" y="0" height="985"/></clipPath><mask id="d62b1070d8"><g filter="url(#a1d70027b4)"><rect x="-150" width="1800" fill="#000000" y="-149.999993" height="1799.99992" fill-opacity="0.3"/></g></mask><clipPath id="9c8f2393ec"><path d="M 0.078125 1 L 984 1 L 984 984.679688 L 0.078125 984.679688 Z M 0.078125 1 " clip-rule="nonzero"/></clipPath><clipPath id="641c274782"><rect x="0" width="985" y="0" height="985"/></clipPath><mask id="c7b743be7f"><g filter="url(#a1d70027b4)"><rect x="-150" width="1800" fill="#000000" y="-149.999993" height="1799.99992" fill-opacity="0.3"/></g></mask><clipPath id="ef79df3338"><rect x="0" width="988" y="0" height="986"/></clipPath><clipPath id="653513edbe"><path d="M 2 11.25 L 1483 11.25 L 1483 1474.5 L 2 1474.5 Z M 2 11.25 " clip-rule="nonzero"/></clipPath></defs><rect x="-150" width="1800" fill="#ffffff" y="-149.999993" height="1799.99992" fill-opacity="1"/><rect x="-150" width="1800" fill="#ffffff" y="-149.999993" height="1799.99992" fill-opacity="1"/><g mask="url(#ef9ff70b39)"><g transform="matrix(1, 0, 0, 1, 5, 487)"><g clip-path="url(#a46f2d6ad5)"><g clip-path="url(#ac8d4b3005)"><path fill="#ffffff" d="M 983.753906 492.980469 C 983.753906 501.023438 983.558594 509.058594 983.164062 517.089844 C 982.769531 525.125 982.175781 533.140625 981.390625 541.144531 C 980.601562 549.148438 979.617188 557.128906 978.4375 565.082031 C 977.257812 573.039062 975.882812 580.957031 974.3125 588.847656 C 972.742188 596.734375 970.980469 604.578125 969.027344 612.378906 C 967.074219 620.179688 964.929688 627.929688 962.59375 635.625 C 960.261719 643.320312 957.738281 650.953125 955.03125 658.527344 C 952.320312 666.097656 949.425781 673.597656 946.347656 681.027344 C 943.273438 688.457031 940.015625 695.808594 936.574219 703.078125 C 933.136719 710.347656 929.523438 717.53125 925.730469 724.621094 C 921.941406 731.714844 917.976562 738.710938 913.84375 745.605469 C 909.707031 752.503906 905.40625 759.296875 900.941406 765.984375 C 896.472656 772.671875 891.84375 779.242188 887.050781 785.703125 C 882.261719 792.164062 877.316406 798.5 872.214844 804.71875 C 867.113281 810.933594 861.859375 817.023438 856.460938 822.980469 C 851.058594 828.9375 845.515625 834.761719 839.828125 840.449219 C 834.140625 846.136719 828.320312 851.679688 822.359375 857.078125 C 816.402344 862.480469 810.3125 867.730469 804.097656 872.832031 C 797.878906 877.933594 791.542969 882.882812 785.082031 887.671875 C 778.625 892.460938 772.050781 897.089844 765.363281 901.558594 C 758.675781 906.027344 751.886719 910.328125 744.988281 914.464844 C 738.089844 918.597656 731.09375 922.558594 724 926.351562 C 716.910156 930.140625 709.726562 933.757812 702.457031 937.195312 C 695.1875 940.632812 687.839844 943.890625 680.410156 946.96875 C 672.976562 950.046875 665.476562 952.941406 657.90625 955.648438 C 650.332031 958.359375 642.699219 960.882812 635.003906 963.214844 C 627.308594 965.550781 619.558594 967.695312 611.757812 969.648438 C 603.957031 971.601562 596.113281 973.363281 588.226562 974.933594 C 580.339844 976.503906 572.417969 977.875 564.460938 979.054688 C 556.507812 980.238281 548.527344 981.222656 540.523438 982.007812 C 532.519531 982.796875 524.503906 983.386719 516.472656 983.78125 C 508.4375 984.175781 500.402344 984.375 492.359375 984.375 C 484.316406 984.375 476.28125 984.179688 468.246094 983.78125 C 460.214844 983.386719 452.199219 982.796875 444.195312 982.007812 C 436.191406 981.222656 428.210938 980.238281 420.257812 979.054688 C 412.300781 977.875 404.378906 976.503906 396.492188 974.933594 C 388.605469 973.363281 380.761719 971.601562 372.960938 969.648438 C 365.160156 967.695312 357.410156 965.550781 349.714844 963.214844 C 342.019531 960.882812 334.386719 958.359375 326.8125 955.648438 C 319.242188 952.941406 311.742188 950.046875 304.3125 946.96875 C 296.878906 943.890625 289.53125 940.632812 282.261719 937.195312 C 274.992188 933.757812 267.808594 930.140625 260.71875 926.351562 C 253.625 922.5625 246.628906 918.597656 239.730469 914.464844 C 232.832031 910.328125 226.042969 906.027344 219.355469 901.558594 C 212.667969 897.09375 206.09375 892.460938 199.636719 887.671875 C 193.175781 882.882812 186.839844 877.933594 180.621094 872.832031 C 174.40625 867.730469 168.316406 862.480469 162.359375 857.078125 C 156.398438 851.679688 150.578125 846.136719 144.890625 840.449219 C 139.203125 834.761719 133.660156 828.941406 128.257812 822.980469 C 122.859375 817.023438 117.609375 810.933594 112.503906 804.71875 C 107.402344 798.5 102.457031 792.164062 97.667969 785.703125 C 92.875 779.242188 88.246094 772.671875 83.777344 765.984375 C 79.3125 759.296875 75.011719 752.503906 70.875 745.605469 C 66.742188 738.710938 62.777344 731.714844 58.988281 724.621094 C 55.195312 717.53125 51.582031 710.347656 48.144531 703.078125 C 44.703125 695.808594 41.445312 688.457031 38.371094 681.027344 C 35.292969 673.597656 32.398438 666.097656 29.6875 658.527344 C 26.980469 650.953125 24.457031 643.320312 22.125 635.625 C 19.789062 627.929688 17.644531 620.179688 15.691406 612.378906 C 13.738281 604.578125 11.976562 596.734375 10.40625 588.847656 C 8.835938 580.957031 7.460938 573.039062 6.28125 565.082031 C 5.101562 557.128906 4.117188 549.148438 3.332031 541.144531 C 2.542969 533.140625 1.949219 525.125 1.554688 517.089844 C 1.160156 509.058594 0.964844 501.023438 0.964844 492.980469 C 0.964844 484.9375 1.160156 476.898438 1.554688 468.867188 C 1.949219 460.835938 2.542969 452.816406 3.332031 444.816406 C 4.117188 436.8125 5.101562 428.832031 6.28125 420.875 C 7.460938 412.921875 8.835938 405 10.40625 397.113281 C 11.976562 389.226562 13.738281 381.382812 15.691406 373.582031 C 17.644531 365.777344 19.789062 358.03125 22.125 350.335938 C 24.457031 342.640625 26.980469 335.003906 29.6875 327.433594 C 32.398438 319.863281 35.292969 312.359375 38.371094 304.929688 C 41.445312 297.5 44.703125 290.152344 48.144531 282.882812 C 51.582031 275.609375 55.195312 268.429688 58.988281 261.335938 C 62.777344 254.246094 66.742188 247.25 70.875 240.351562 C 75.011719 233.453125 79.3125 226.660156 83.777344 219.976562 C 88.246094 213.289062 92.875 206.714844 97.667969 200.253906 C 102.457031 193.796875 107.402344 187.457031 112.503906 181.242188 C 117.609375 175.023438 122.859375 168.9375 128.257812 162.980469 C 133.660156 157.019531 139.203125 151.195312 144.890625 145.511719 C 150.578125 139.824219 156.398438 134.28125 162.359375 128.878906 C 168.316406 123.480469 174.40625 118.226562 180.621094 113.125 C 186.839844 108.023438 193.175781 103.078125 199.636719 98.289062 C 206.09375 93.496094 212.667969 88.867188 219.355469 84.398438 C 226.042969 79.929688 232.832031 75.628906 239.730469 71.496094 C 246.628906 67.359375 253.625 63.398438 260.71875 59.609375 C 267.808594 55.816406 274.992188 52.203125 282.261719 48.761719 C 289.53125 45.324219 296.878906 42.066406 304.3125 38.988281 C 311.742188 35.910156 319.242188 33.019531 326.8125 30.308594 C 334.386719 27.601562 342.019531 25.078125 349.714844 22.742188 C 357.410156 20.410156 365.160156 18.265625 372.960938 16.3125 C 380.761719 14.355469 388.605469 12.59375 396.492188 11.027344 C 404.378906 9.457031 412.300781 8.082031 420.257812 6.902344 C 428.210938 5.722656 436.191406 4.738281 444.195312 3.949219 C 452.199219 3.164062 460.214844 2.570312 468.246094 2.175781 C 476.28125 1.78125 484.316406 1.585938 492.359375 1.585938 C 500.402344 1.585938 508.4375 1.78125 516.472656 2.175781 C 524.503906 2.570312 532.519531 3.164062 540.523438 3.949219 C 548.527344 4.738281 556.507812 5.722656 564.460938 6.902344 C 572.417969 8.082031 580.339844 9.457031 588.226562 11.027344 C 596.113281 12.59375 603.957031 14.355469 611.757812 16.3125 C 619.558594 18.265625 627.308594 20.410156 635.003906 22.742188 C 642.699219 25.078125 650.332031 27.601562 657.90625 30.308594 C 665.476562 33.019531 672.976562 35.910156 680.410156 38.988281 C 687.839844 42.066406 695.1875 45.324219 702.457031 48.761719 C 709.726562 52.203125 716.910156 55.816406 724 59.609375 C 731.09375 63.398438 738.089844 67.359375 744.988281 71.496094 C 751.886719 75.628906 758.675781 79.929688 765.363281 84.398438 C 772.050781 88.867188 778.625 93.496094 785.082031 98.285156 C 791.542969 103.078125 797.878906 108.023438 804.097656 113.125 C 810.3125 118.226562 816.402344 123.480469 822.359375 128.878906 C 828.320312 134.28125 834.140625 139.824219 839.828125 145.511719 C 845.515625 151.195312 851.058594 157.019531 856.460938 162.980469 C 861.859375 168.9375 867.113281 175.023438 872.214844 181.242188 C 877.316406 187.457031 882.261719 193.796875 887.050781 200.253906 C 891.84375 206.714844 896.472656 213.289062 900.941406 219.976562 C 905.40625 226.660156 909.707031 233.453125 913.84375 240.351562 C 917.976562 247.25 921.941406 254.246094 925.730469 261.335938 C 929.523438 268.429688 933.136719 275.609375 936.574219 282.882812 C 940.015625 290.152344 943.273438 297.5 946.347656 304.929688 C 949.425781 312.359375 952.320312 319.863281 955.03125 327.433594 C 957.738281 335.003906 960.261719 342.640625 962.59375 350.335938 C 964.929688 358.03125 967.074219 365.777344 969.027344 373.582031 C 970.980469 381.382812 972.742188 389.226562 974.3125 397.113281 C 975.882812 405 977.257812 412.921875 978.4375 420.875 C 979.617188 428.832031 980.601562 436.8125 981.390625 444.816406 C 982.175781 452.816406 982.769531 460.835938 983.164062 468.867188 C 983.558594 476.898438 983.753906 484.9375 983.753906 492.980469 Z M 983.753906 492.980469 " fill-opacity="1" fill-rule="nonzero"/></g></g></g></g><g mask="url(#d62b1070d8)"><g transform="matrix(1, 0, 0, 1, 496, 487)"><g clip-path="url(#641c274782)"><g clip-path="url(#9c8f2393ec)"><path fill="#ffffff" d="M 983.65625 492.980469 C 983.65625 501.023438 983.460938 509.058594 983.066406 517.089844 C 982.671875 525.125 982.078125 533.140625 981.289062 541.144531 C 980.503906 549.148438 979.519531 557.128906 978.339844 565.082031 C 977.15625 573.039062 975.785156 580.957031 974.214844 588.847656 C 972.644531 596.734375 970.882812 604.578125 968.929688 612.378906 C 966.976562 620.179688 964.832031 627.929688 962.496094 635.625 C 960.164062 643.320312 957.640625 650.953125 954.933594 658.527344 C 952.222656 666.097656 949.328125 673.597656 946.25 681.027344 C 943.171875 688.457031 939.914062 695.808594 936.476562 703.078125 C 933.039062 710.347656 929.425781 717.53125 925.632812 724.621094 C 921.84375 731.714844 917.878906 738.710938 913.746094 745.605469 C 909.609375 752.503906 905.308594 759.296875 900.839844 765.984375 C 896.375 772.671875 891.746094 779.242188 886.953125 785.703125 C 882.164062 792.164062 877.21875 798.5 872.117188 804.71875 C 867.011719 810.933594 861.761719 817.023438 856.359375 822.980469 C 850.960938 828.9375 845.417969 834.761719 839.730469 840.449219 C 834.042969 846.136719 828.222656 851.679688 822.261719 857.078125 C 816.304688 862.480469 810.214844 867.730469 804 872.832031 C 797.78125 877.933594 791.445312 882.882812 784.984375 887.671875 C 778.527344 892.460938 771.953125 897.089844 765.265625 901.558594 C 758.578125 906.027344 751.785156 910.328125 744.890625 914.464844 C 737.992188 918.597656 730.996094 922.558594 723.902344 926.351562 C 716.8125 930.140625 709.628906 933.757812 702.359375 937.195312 C 695.089844 940.632812 687.738281 943.890625 680.308594 946.96875 C 672.878906 950.046875 665.378906 952.941406 657.808594 955.648438 C 650.234375 958.359375 642.601562 960.882812 634.90625 963.214844 C 627.210938 965.550781 619.460938 967.695312 611.660156 969.648438 C 603.859375 971.601562 596.015625 973.363281 588.128906 974.933594 C 580.242188 976.503906 572.320312 977.875 564.363281 979.054688 C 556.410156 980.238281 548.429688 981.222656 540.425781 982.007812 C 532.421875 982.796875 524.40625 983.386719 516.375 983.78125 C 508.339844 984.175781 500.304688 984.375 492.261719 984.375 C 484.21875 984.375 476.183594 984.179688 468.148438 983.78125 C 460.117188 983.386719 452.101562 982.796875 444.097656 982.007812 C 436.09375 981.222656 428.113281 980.238281 420.160156 979.054688 C 412.203125 977.875 404.28125 976.503906 396.394531 974.933594 C 388.507812 973.363281 380.664062 971.601562 372.863281 969.648438 C 365.0625 967.695312 357.3125 965.550781 349.617188 963.214844 C 341.921875 960.882812 334.289062 958.359375 326.714844 955.648438 C 319.144531 952.941406 311.640625 950.046875 304.210938 946.96875 C 296.78125 943.890625 289.433594 940.632812 282.164062 937.195312 C 274.894531 933.757812 267.710938 930.140625 260.621094 926.351562 C 253.527344 922.5625 246.53125 918.597656 239.632812 914.464844 C 232.734375 910.328125 225.945312 906.027344 219.257812 901.558594 C 212.570312 897.09375 205.996094 892.460938 199.539062 887.671875 C 193.078125 882.882812 186.742188 877.933594 180.523438 872.832031 C 174.308594 867.730469 168.21875 862.480469 162.261719 857.078125 C 156.300781 851.679688 150.480469 846.136719 144.792969 840.449219 C 139.105469 834.761719 133.5625 828.941406 128.160156 822.980469 C 122.761719 817.023438 117.507812 810.933594 112.40625 804.71875 C 107.304688 798.5 102.359375 792.164062 97.570312 785.703125 C 92.777344 779.242188 88.148438 772.671875 83.679688 765.984375 C 79.214844 759.296875 74.910156 752.503906 70.777344 745.605469 C 66.644531 738.710938 62.679688 731.714844 58.890625 724.621094 C 55.097656 717.53125 51.484375 710.347656 48.046875 703.078125 C 44.605469 695.808594 41.347656 688.457031 38.269531 681.027344 C 35.195312 673.597656 32.300781 666.097656 29.589844 658.527344 C 26.882812 650.953125 24.359375 643.320312 22.027344 635.625 C 19.691406 627.929688 17.546875 620.179688 15.59375 612.378906 C 13.636719 604.578125 11.878906 596.734375 10.308594 588.847656 C 8.738281 580.957031 7.363281 573.039062 6.183594 565.082031 C 5.003906 557.128906 4.019531 549.148438 3.230469 541.144531 C 2.445312 533.140625 1.851562 525.125 1.457031 517.089844 C 1.0625 509.058594 0.867188 501.023438 0.867188 492.980469 C 0.867188 484.9375 1.0625 476.898438 1.457031 468.867188 C 1.851562 460.835938 2.445312 452.816406 3.230469 444.816406 C 4.019531 436.8125 5.003906 428.832031 6.183594 420.875 C 7.363281 412.921875 8.738281 405 10.308594 397.113281 C 11.878906 389.226562 13.636719 381.382812 15.59375 373.582031 C 17.546875 365.777344 19.691406 358.03125 22.027344 350.335938 C 24.359375 342.640625 26.882812 335.003906 29.589844 327.433594 C 32.300781 319.863281 35.195312 312.359375 38.269531 304.929688 C 41.347656 297.5 44.605469 290.152344 48.046875 282.882812 C 51.484375 275.609375 55.097656 268.429688 58.890625 261.335938 C 62.679688 254.246094 66.644531 247.25 70.777344 240.351562 C 74.910156 233.453125 79.214844 226.660156 83.679688 219.976562 C 88.148438 213.289062 92.777344 206.714844 97.570312 200.253906 C 102.359375 193.796875 107.304688 187.457031 112.40625 181.242188 C 117.507812 175.023438 122.761719 168.9375 128.160156 162.980469 C 133.5625 157.019531 139.105469 151.195312 144.792969 145.511719 C 150.480469 139.824219 156.300781 134.28125 162.261719 128.878906 C 168.21875 123.480469 174.308594 118.226562 180.523438 113.125 C 186.742188 108.023438 193.078125 103.078125 199.539062 98.289062 C 205.996094 93.496094 212.570312 88.867188 219.257812 84.398438 C 225.945312 79.929688 232.734375 75.628906 239.632812 71.496094 C 246.53125 67.359375 253.527344 63.398438 260.621094 59.609375 C 267.710938 55.816406 274.894531 52.203125 282.164062 48.761719 C 289.433594 45.324219 296.78125 42.066406 304.210938 38.988281 C 311.640625 35.910156 319.144531 33.019531 326.714844 30.308594 C 334.289062 27.601562 341.921875 25.078125 349.617188 22.742188 C 357.3125 20.410156 365.0625 18.265625 372.863281 16.3125 C 380.664062 14.355469 388.507812 12.59375 396.394531 11.027344 C 404.28125 9.457031 412.203125 8.082031 420.160156 6.902344 C 428.113281 5.722656 436.09375 4.738281 444.097656 3.949219 C 452.101562 3.164062 460.117188 2.570312 468.148438 2.175781 C 476.183594 1.78125 484.21875 1.585938 492.261719 1.585938 C 500.304688 1.585938 508.339844 1.78125 516.375 2.175781 C 524.40625 2.570312 532.421875 3.164062 540.425781 3.949219 C 548.429688 4.738281 556.410156 5.722656 564.363281 6.902344 C 572.320312 8.082031 580.242188 9.457031 588.128906 11.027344 C 596.015625 12.59375 603.859375 14.355469 611.660156 16.3125 C 619.460938 18.265625 627.210938 20.410156 634.90625 22.742188 C 642.601562 25.078125 650.234375 27.601562 657.808594 30.308594 C 665.378906 33.019531 672.878906 35.910156 680.308594 38.988281 C 687.738281 42.066406 695.089844 45.324219 702.359375 48.761719 C 709.628906 52.203125 716.8125 55.816406 723.902344 59.609375 C 730.996094 63.398438 737.992188 67.359375 744.890625 71.496094 C 751.785156 75.628906 758.578125 79.929688 765.265625 84.398438 C 771.953125 88.867188 778.527344 93.496094 784.984375 98.285156 C 791.445312 103.078125 797.78125 108.023438 804 113.125 C 810.214844 118.226562 816.304688 123.480469 822.261719 128.878906 C 828.222656 134.28125 834.042969 139.824219 839.730469 145.511719 C 845.417969 151.195312 850.960938 157.019531 856.359375 162.980469 C 861.761719 168.9375 867.011719 175.023438 872.117188 181.242188 C 877.21875 187.457031 882.164062 193.796875 886.953125 200.253906 C 891.746094 206.714844 896.375 213.289062 900.839844 219.976562 C 905.308594 226.660156 909.609375 233.453125 913.746094 240.351562 C 917.878906 247.25 921.84375 254.246094 925.632812 261.335938 C 929.425781 268.429688 933.039062 275.609375 936.476562 282.882812 C 939.914062 290.152344 943.171875 297.5 946.25 304.929688 C 949.328125 312.359375 952.222656 319.863281 954.933594 327.433594 C 957.640625 335.003906 960.164062 342.640625 962.496094 350.335938 C 964.832031 358.03125 966.976562 365.777344 968.929688 373.582031 C 970.882812 381.382812 972.644531 389.226562 974.214844 397.113281 C 975.785156 405 977.15625 412.921875 978.339844 420.875 C 979.519531 428.832031 980.503906 436.8125 981.289062 444.816406 C 982.078125 452.816406 982.671875 460.835938 983.066406 468.867188 C 983.460938 476.898438 983.65625 484.9375 983.65625 492.980469 Z M 983.65625 492.980469 " fill-opacity="1" fill-rule="nonzero"/></g></g></g></g><g mask="url(#c7b743be7f)"><g transform="matrix(1, 0, 0, 1, 249, 13)"><g clip-path="url(#ef79df3338)"><path fill="#ffffff" d="M 985.207031 492.851562 C 985.207031 500.894531 985.007812 508.929688 984.613281 516.964844 C 984.21875 524.996094 983.628906 533.015625 982.839844 541.015625 C 982.050781 549.019531 981.066406 557 979.886719 564.953125 C 978.707031 572.910156 977.332031 580.832031 975.765625 588.71875 C 974.195312 596.605469 972.433594 604.449219 970.480469 612.25 C 968.523438 620.050781 966.382812 627.800781 964.046875 635.496094 C 961.710938 643.191406 959.191406 650.828125 956.480469 658.398438 C 953.773438 665.96875 950.878906 673.472656 947.800781 680.902344 C 944.722656 688.332031 941.464844 695.679688 938.027344 702.949219 C 934.589844 710.21875 930.972656 717.402344 927.183594 724.496094 C 923.390625 731.585938 919.429688 738.582031 915.292969 745.480469 C 911.160156 752.378906 906.859375 759.171875 902.390625 765.855469 C 897.921875 772.542969 893.292969 779.117188 888.503906 785.574219 C 883.710938 792.035156 878.765625 798.375 873.664062 804.589844 C 868.5625 810.804688 863.3125 816.894531 857.910156 822.851562 C 852.507812 828.8125 846.964844 834.632812 841.28125 840.320312 C 835.59375 846.007812 829.769531 851.550781 823.8125 856.953125 C 817.851562 862.351562 811.765625 867.605469 805.546875 872.707031 C 799.332031 877.808594 792.992188 882.753906 786.535156 887.542969 C 780.074219 892.335938 773.5 896.964844 766.816406 901.433594 C 760.128906 905.898438 753.335938 910.203125 746.4375 914.335938 C 739.539062 918.46875 732.546875 922.433594 725.453125 926.222656 C 718.359375 930.015625 711.179688 933.628906 703.910156 937.066406 C 696.640625 940.507812 689.289062 943.765625 681.859375 946.84375 C 674.429688 949.917969 666.929688 952.8125 659.355469 955.523438 C 651.785156 958.230469 644.152344 960.753906 636.453125 963.089844 C 628.757812 965.421875 621.011719 967.566406 613.210938 969.519531 C 605.410156 971.476562 597.566406 973.238281 589.675781 974.804688 C 581.789062 976.375 573.867188 977.75 565.914062 978.929688 C 557.957031 980.109375 549.980469 981.09375 541.976562 981.882812 C 533.972656 982.667969 525.953125 983.261719 517.921875 983.65625 C 509.890625 984.050781 501.851562 984.246094 493.808594 984.246094 C 485.769531 984.246094 477.730469 984.050781 469.699219 983.65625 C 461.667969 983.261719 453.648438 982.667969 445.644531 981.882812 C 437.640625 981.09375 429.664062 980.109375 421.707031 978.929688 C 413.753906 977.75 405.832031 976.375 397.945312 974.804688 C 390.054688 973.238281 382.210938 971.476562 374.410156 969.519531 C 366.609375 967.566406 358.863281 965.421875 351.164062 963.089844 C 343.46875 960.753906 335.835938 958.230469 328.265625 955.523438 C 320.691406 952.8125 313.191406 949.917969 305.761719 946.84375 C 298.332031 943.765625 290.980469 940.507812 283.710938 937.066406 C 276.441406 933.628906 269.261719 930.015625 262.167969 926.222656 C 255.074219 922.433594 248.082031 918.46875 241.183594 914.335938 C 234.285156 910.203125 227.492188 905.898438 220.804688 901.433594 C 214.117188 896.964844 207.546875 892.335938 201.085938 887.542969 C 194.628906 882.753906 188.289062 877.808594 182.074219 872.707031 C 175.855469 867.605469 169.769531 862.351562 163.808594 856.953125 C 157.851562 851.550781 152.027344 846.007812 146.339844 840.320312 C 140.65625 834.632812 135.109375 828.8125 129.710938 822.851562 C 124.308594 816.894531 119.058594 810.804688 113.957031 804.589844 C 108.855469 798.375 103.910156 792.035156 99.117188 785.574219 C 94.328125 779.117188 89.699219 772.542969 85.230469 765.855469 C 80.761719 759.171875 76.460938 752.378906 72.328125 745.480469 C 68.191406 738.582031 64.230469 731.585938 60.4375 724.496094 C 56.648438 717.402344 53.03125 710.21875 49.59375 702.949219 C 46.15625 695.679688 42.898438 688.332031 39.820312 680.902344 C 36.742188 673.472656 33.847656 665.96875 31.140625 658.398438 C 28.429688 650.828125 25.910156 643.191406 23.574219 635.496094 C 21.238281 627.800781 19.097656 620.050781 17.140625 612.25 C 15.1875 604.449219 13.425781 596.605469 11.855469 588.71875 C 10.289062 580.832031 8.914062 572.910156 7.734375 564.953125 C 6.554688 557 5.570312 549.019531 4.78125 541.015625 C 3.992188 533.015625 3.402344 524.996094 3.007812 516.964844 C 2.613281 508.929688 2.414062 500.894531 2.414062 492.851562 C 2.414062 484.808594 2.613281 476.773438 3.007812 468.742188 C 3.402344 460.707031 3.992188 452.691406 4.78125 444.6875 C 5.570312 436.683594 6.554688 428.703125 7.734375 420.75 C 8.914062 412.792969 10.289062 404.875 11.855469 396.984375 C 13.425781 389.097656 15.1875 381.253906 17.140625 373.453125 C 19.097656 365.652344 21.238281 357.902344 23.574219 350.207031 C 25.910156 342.511719 28.429688 334.878906 31.140625 327.304688 C 33.847656 319.734375 36.742188 312.234375 39.820312 304.804688 C 42.898438 297.375 46.15625 290.023438 49.59375 282.753906 C 53.03125 275.484375 56.648438 268.300781 60.4375 261.210938 C 64.230469 254.117188 68.191406 247.121094 72.328125 240.222656 C 76.460938 233.328125 80.761719 226.535156 85.230469 219.847656 C 89.699219 213.160156 94.328125 206.585938 99.117188 200.128906 C 103.910156 193.667969 108.855469 187.332031 113.957031 181.113281 C 119.058594 174.898438 124.308594 168.808594 129.710938 162.851562 C 135.109375 156.890625 140.65625 151.070312 146.339844 145.382812 C 152.027344 139.695312 157.851562 134.152344 163.808594 128.753906 C 169.769531 123.351562 175.855469 118.101562 182.074219 113 C 188.289062 107.898438 194.628906 102.949219 201.085938 98.160156 C 207.546875 93.367188 214.117188 88.738281 220.804688 84.273438 C 227.492188 79.804688 234.285156 75.503906 241.183594 71.367188 C 248.082031 67.234375 255.074219 63.269531 262.167969 59.480469 C 269.261719 55.6875 276.441406 52.074219 283.710938 48.636719 C 290.980469 45.199219 298.332031 41.941406 305.761719 38.863281 C 313.191406 35.785156 320.691406 32.890625 328.265625 30.183594 C 335.835938 27.472656 343.46875 24.949219 351.164062 22.617188 C 358.863281 20.28125 366.609375 18.136719 374.410156 16.183594 C 382.210938 14.230469 390.054688 12.46875 397.945312 10.898438 C 405.832031 9.328125 413.753906 7.957031 421.707031 6.777344 C 429.664062 5.59375 437.640625 4.613281 445.644531 3.824219 C 453.648438 3.035156 461.667969 2.445312 469.699219 2.046875 C 477.730469 1.652344 485.769531 1.457031 493.808594 1.457031 C 501.851562 1.457031 509.890625 1.652344 517.921875 2.046875 C 525.953125 2.445312 533.972656 3.035156 541.976562 3.824219 C 549.980469 4.613281 557.957031 5.59375 565.914062 6.777344 C 573.867188 7.957031 581.789062 9.328125 589.675781 10.898438 C 597.566406 12.46875 605.410156 14.230469 613.210938 16.183594 C 621.011719 18.136719 628.757812 20.28125 636.453125 22.617188 C 644.152344 24.949219 651.785156 27.472656 659.355469 30.183594 C 666.929688 32.890625 674.429688 35.785156 681.859375 38.863281 C 689.289062 41.941406 696.640625 45.199219 703.910156 48.636719 C 711.179688 52.074219 718.359375 55.6875 725.453125 59.480469 C 732.546875 63.269531 739.539062 67.234375 746.4375 71.367188 C 753.335938 75.503906 760.128906 79.804688 766.816406 84.273438 C 773.5 88.738281 780.074219 93.367188 786.535156 98.160156 C 792.992188 102.949219 799.332031 107.898438 805.546875 113 C 811.765625 118.101562 817.851562 123.351562 823.8125 128.753906 C 829.769531 134.152344 835.59375 139.695312 841.28125 145.382812 C 846.964844 151.070312 852.507812 156.890625 857.910156 162.851562 C 863.3125 168.808594 868.5625 174.898438 873.664062 181.113281 C 878.765625 187.332031 883.710938 193.667969 888.503906 200.128906 C 893.292969 206.585938 897.921875 213.160156 902.390625 219.847656 C 906.859375 226.535156 911.160156 233.328125 915.292969 240.222656 C 919.429688 247.121094 923.390625 254.117188 927.183594 261.210938 C 930.972656 268.300781 934.589844 275.484375 938.027344 282.753906 C 941.464844 290.023438 944.722656 297.375 947.800781 304.804688 C 950.878906 312.234375 953.773438 319.734375 956.480469 327.304688 C 959.191406 334.878906 961.710938 342.511719 964.046875 350.207031 C 966.382812 357.902344 968.523438 365.652344 970.480469 373.453125 C 972.433594 381.253906 974.195312 389.097656 975.765625 396.984375 C 977.332031 404.875 978.707031 412.792969 979.886719 420.75 C 981.066406 428.703125 982.050781 436.683594 982.839844 444.6875 C 983.628906 452.691406 984.21875 460.707031 984.613281 468.742188 C 985.007812 476.773438 985.207031 484.808594 985.207031 492.851562 Z M 985.207031 492.851562 " fill-opacity="1" fill-rule="nonzero"/></g></g></g><g clip-path="url(#653513edbe)"><path fill="#ff5757" d="M 1235.4375 551.488281 C 1236.917969 536.441406 1237.660156 521.148438 1237.660156 505.851562 C 1237.414062 233.265625 1015.644531 11.25 742.808594 11.25 C 469.976562 11.25 248.207031 233.265625 248.207031 505.851562 C 248.207031 521.148438 248.949219 536.441406 250.429688 551.488281 C 102.417969 637.335938 2.757812 797.1875 2.757812 979.980469 C 2.757812 1252.8125 224.773438 1474.582031 497.359375 1474.582031 C 586.660156 1474.582031 670.285156 1450.898438 742.808594 1409.210938 C 815.089844 1450.652344 898.960938 1474.582031 988.261719 1474.582031 C 1261.09375 1474.582031 1482.863281 1252.566406 1482.863281 979.980469 C 1482.863281 797.1875 1383.203125 637.335938 1235.4375 551.488281 Z M 254.621094 505.851562 C 254.621094 236.71875 473.679688 17.910156 742.808594 17.910156 C 1011.941406 17.910156 1231 236.964844 1231 506.097656 C 1231 520.40625 1230.257812 534.222656 1229.273438 548.28125 C 1157.980469 508.320312 1075.835938 485.625 988.507812 485.625 C 899.207031 485.625 815.582031 509.304688 743.058594 550.996094 C 670.777344 509.550781 586.90625 485.625 497.605469 485.625 C 410.28125 485.625 328.132812 508.320312 256.84375 548.28125 C 255.363281 534.222656 254.621094 520.160156 254.621094 505.851562 Z M 985.546875 979.980469 C 985.546875 1159.8125 887.859375 1316.949219 742.808594 1401.808594 C 597.761719 1317.195312 500.074219 1159.8125 500.074219 979.980469 C 500.074219 965.671875 500.8125 951.859375 501.800781 937.796875 C 573.089844 977.757812 655.238281 1000.453125 742.5625 1000.453125 C 829.890625 1000.453125 912.035156 977.757812 983.328125 937.796875 C 984.808594 951.609375 985.546875 965.671875 985.546875 979.980469 Z M 742.808594 994.039062 C 655.484375 994.039062 573.585938 971.097656 502.539062 930.644531 C 518.574219 771.777344 611.082031 635.113281 742.808594 558.148438 C 874.539062 635.113281 967.046875 771.777344 983.082031 930.644531 C 912.035156 970.851562 830.136719 994.039062 742.808594 994.039062 Z M 496.371094 926.941406 C 365.382812 849.976562 273.125 713.558594 257.335938 555.1875 C 328.378906 514.980469 410.28125 491.792969 497.605469 491.792969 C 584.191406 491.792969 665.84375 514.484375 736.398438 554.449219 C 605.40625 632.15625 513.394531 768.570312 496.371094 926.941406 Z M 749.472656 554.449219 C 820.023438 514.734375 901.675781 491.792969 988.261719 491.792969 C 1075.585938 491.792969 1157.488281 514.734375 1228.53125 555.1875 C 1212.496094 713.808594 1120.484375 849.976562 989.496094 926.941406 C 972.226562 768.570312 880.214844 632.15625 749.472656 554.449219 Z M 497.359375 1468.167969 C 228.226562 1468.167969 9.417969 1249.113281 9.417969 979.980469 C 9.417969 800.640625 106.613281 643.75 251.167969 558.890625 C 268.191406 719.234375 362.421875 857.128906 495.878906 934.34375 C 494.398438 949.390625 493.660156 964.683594 493.660156 979.980469 C 493.660156 1160.800781 591.101562 1319.171875 736.398438 1405.511719 C 665.597656 1445.226562 584.191406 1468.167969 497.359375 1468.167969 Z M 988.261719 1468.167969 C 901.675781 1468.167969 820.023438 1445.472656 749.472656 1405.511719 C 894.769531 1319.171875 992.207031 1160.800781 992.207031 979.980469 C 992.207031 964.683594 991.46875 949.390625 989.988281 934.34375 C 1123.445312 857.128906 1217.429688 719.234375 1234.699219 558.890625 C 1379.257812 643.75 1476.449219 800.640625 1476.449219 979.980469 C 1476.203125 1249.113281 1257.394531 1468.167969 988.261719 1468.167969 Z M 988.261719 1468.167969 " fill-opacity="1" fill-rule="nonzero"/></g></svg>