<svg width="96" height="96" viewBox="0 0 96 96" fill="none" xmlns="http://www.w3.org/2000/svg">
<path d="M78 88V46C78 44.8954 77.1046 44 76 44H69C67.8954 44 67 43.1046 67 42V37C67 25.9543 58.0457 17 47 17C35.9543 17 27 25.9543 27 37V42C27 43.1046 26.1046 44 25 44H18C16.8954 44 16 44.8954 16 46V88" stroke="#66D432" stroke-width="3"/>
<path d="M74 84V48C74 46.8954 73.1046 46 72 46H65C63.8954 46 63 45.1046 63 44V37C63 28.1634 55.8366 21 47 21C38.1634 21 31 28.1634 31 37V44C31 45.1046 30.1046 46 29 46H22C20.8954 46 20 46.8954 20 48V84" stroke="#66D432" stroke-width="3"/>
</svg>
