<svg width="102" height="118" viewBox="0 0 102 118" fill="none" xmlns="http://www.w3.org/2000/svg">
<path d="M101 44.5L51 70L1 44.5M51 1V70V1Z" stroke="currentColor" stroke-width="2" stroke-linejoin="round"/>
<path d="M86 32V83C86 85.1217 85.1571 87.1566 83.6569 88.6569C82.1566 90.1571 80.1217 91 78 91H24C21.8783 91 19.8434 90.1571 18.3431 88.6569C16.8429 87.1566 16 85.1217 16 83V32C16 29.8783 16.8429 27.8434 18.3431 26.3431C19.8434 24.8429 21.8783 24 24 24H78C80.1217 24 82.1566 24.8429 83.6569 26.3431C85.1571 27.8434 86 29.8783 86 32Z" stroke="currentColor" stroke-width="2" stroke-linecap="round" stroke-linejoin="round"/>
<path d="M86 32L51 51L16 32" stroke="currentColor" stroke-width="2" stroke-linecap="round" stroke-linejoin="round"/>
</svg>
