<svg xmlns="http://www.w3.org/2000/svg" xmlns:xlink="http://www.w3.org/1999/xlink" width="2000" zoomAndPan="magnify" viewBox="0 0 1500 1499.999933" height="2000" preserveAspectRatio="xMidYMid meet" version="1.0"><defs><clipPath id="870d756045"><path d="M 265 29 L 1238 29 L 1238 1475.863281 L 265 1475.863281 Z M 265 29 " clip-rule="nonzero"/></clipPath></defs><rect x="-150" width="1800" fill="#ffffff" y="-149.999993" height="1799.99992" fill-opacity="1"/><rect x="-150" width="1800" fill="#ffffff" y="-149.999993" height="1799.99992" fill-opacity="1"/><g clip-path="url(#870d756045)"><path fill="#66d432" d="M 1237.222656 412.589844 C 1237.199219 412.570312 1237.179688 412.550781 1237.164062 412.535156 C 1237.144531 412.519531 1237.128906 412.496094 1237.105469 412.480469 C 1236.785156 412.15625 1236.335938 411.941406 1235.738281 411.941406 C 1202.230469 411.941406 1168.726562 411.941406 1135.214844 411.941406 C 1134.957031 362.945312 1125.347656 314.371094 1106.851562 268.984375 C 1088.492188 223.910156 1061.433594 181.011719 1026.894531 146.523438 C 1009.519531 129.171875 991.183594 112.660156 970.847656 98.832031 C 949.851562 84.558594 928.082031 72.242188 904.875 61.929688 C 860.0625 42.011719 811.417969 31.691406 763.132812 30.082031 C 713.71875 28.433594 662.605469 36.398438 616.484375 54.496094 C 571.65625 72.085938 527.90625 96.628906 492.851562 130.09375 C 456.832031 164.476562 425.808594 204.027344 404.847656 249.457031 C 394.34375 272.21875 386.265625 295.398438 379.386719 319.492188 C 376.117188 330.925781 374.507812 343.15625 372.492188 354.863281 C 370.46875 366.625 368.84375 378.800781 368.449219 390.730469 C 368.210938 397.800781 367.976562 404.871094 367.738281 411.941406 C 334.21875 411.941406 300.695312 411.941406 267.175781 411.941406 C 266.582031 411.941406 266.128906 412.15625 265.804688 412.480469 C 265.785156 412.496094 265.769531 412.515625 265.75 412.535156 C 265.730469 412.550781 265.714844 412.570312 265.699219 412.589844 C 265.375 412.914062 265.15625 413.367188 265.15625 413.960938 C 265.15625 434.078125 265.15625 454.191406 265.15625 474.304688 C 265.15625 526.046875 265.15625 577.789062 265.15625 629.527344 C 265.15625 699.980469 265.15625 770.4375 265.15625 840.898438 C 265.15625 917.164062 265.15625 993.433594 265.15625 1069.699219 C 265.15625 1138.863281 265.15625 1208.023438 265.15625 1277.199219 C 265.15625 1326.359375 265.15625 1375.515625 265.15625 1424.675781 C 265.15625 1441.140625 265.15625 1457.609375 265.15625 1474.078125 C 265.15625 1474.671875 265.375 1475.125 265.699219 1475.445312 C 265.714844 1475.46875 265.730469 1475.484375 265.75 1475.503906 C 265.769531 1475.519531 265.785156 1475.542969 265.804688 1475.558594 C 266.125 1475.878906 266.578125 1476.097656 267.175781 1476.097656 C 288.964844 1476.097656 310.75 1476.097656 332.539062 1476.097656 C 387.601562 1476.097656 442.660156 1476.097656 497.722656 1476.097656 C 570.597656 1476.097656 643.472656 1476.097656 716.347656 1476.097656 C 791.578125 1476.097656 866.8125 1476.097656 942.046875 1476.097656 C 1004.175781 1476.097656 1066.308594 1476.097656 1128.445312 1476.097656 C 1162.019531 1476.097656 1195.589844 1476.097656 1229.164062 1476.097656 C 1231.363281 1476.097656 1233.554688 1476.097656 1235.746094 1476.097656 C 1236.34375 1476.097656 1236.792969 1475.882812 1237.117188 1475.558594 C 1237.140625 1475.542969 1237.15625 1475.519531 1237.171875 1475.503906 C 1237.191406 1475.484375 1237.207031 1475.46875 1237.230469 1475.445312 C 1237.550781 1475.125 1237.769531 1474.671875 1237.769531 1474.078125 C 1237.769531 1453.960938 1237.769531 1433.84375 1237.769531 1413.734375 C 1237.769531 1361.996094 1237.769531 1310.253906 1237.769531 1258.511719 C 1237.769531 1188.054688 1237.769531 1117.597656 1237.769531 1047.140625 C 1237.769531 970.871094 1237.769531 894.609375 1237.769531 818.339844 C 1237.769531 749.171875 1237.769531 680.007812 1237.769531 610.839844 C 1237.769531 561.679688 1237.769531 512.523438 1237.769531 463.363281 C 1237.769531 446.894531 1237.769531 430.425781 1237.769531 413.960938 C 1237.761719 413.367188 1237.542969 412.914062 1237.222656 412.589844 Z M 1233.722656 474.304688 C 1233.722656 526.046875 1233.722656 577.789062 1233.722656 629.527344 C 1233.722656 699.980469 1233.722656 770.4375 1233.722656 840.898438 C 1233.722656 917.164062 1233.722656 993.433594 1233.722656 1069.699219 C 1233.722656 1138.863281 1233.722656 1208.023438 1233.722656 1277.199219 C 1233.722656 1326.359375 1233.722656 1375.515625 1233.722656 1424.675781 C 1233.722656 1440.46875 1233.722656 1456.265625 1233.722656 1472.0625 C 1212.609375 1472.0625 1191.492188 1472.0625 1170.375 1472.0625 C 1115.3125 1472.0625 1060.253906 1472.0625 1005.195312 1472.0625 C 932.316406 1472.0625 859.441406 1472.0625 786.566406 1472.0625 C 711.335938 1472.0625 636.101562 1472.0625 560.871094 1472.0625 C 498.738281 1472.0625 436.605469 1472.0625 374.476562 1472.0625 C 340.902344 1472.0625 307.328125 1472.0625 273.75 1472.0625 C 272.234375 1472.0625 270.710938 1472.0625 269.1875 1472.0625 C 269.1875 1452.617188 269.1875 1433.175781 269.1875 1413.730469 C 269.1875 1361.992188 269.1875 1310.25 269.1875 1258.511719 C 269.1875 1188.050781 269.1875 1117.59375 269.1875 1047.136719 C 269.1875 970.867188 269.1875 894.605469 269.1875 818.339844 C 269.1875 749.171875 269.1875 680.003906 269.1875 610.835938 C 269.1875 561.679688 269.1875 512.519531 269.1875 463.359375 C 269.1875 447.5625 269.1875 431.769531 269.1875 415.976562 C 302.6875 415.976562 336.1875 415.976562 369.6875 415.976562 C 370.441406 415.976562 370.96875 415.632812 371.285156 415.152344 C 371.292969 415.140625 371.300781 415.128906 371.3125 415.117188 C 371.335938 415.082031 371.359375 415.046875 371.375 415.007812 C 371.566406 414.722656 371.691406 414.378906 371.707031 413.957031 C 372.546875 388.675781 374.1875 365.195312 379.113281 340.691406 C 384.128906 315.757812 391.128906 290.4375 401.164062 267.859375 C 411.03125 245.660156 421.523438 224.117188 435.230469 203.960938 C 449.277344 183.304688 464.128906 164.089844 482.15625 146.085938 C 516.886719 111.402344 558.753906 82.285156 603.816406 63.925781 C 627.003906 54.480469 650.480469 46.699219 675.082031 41.78125 C 700.480469 36.699219 724.449219 34.621094 750.5625 33.753906 C 774.90625 32.945312 799.167969 35.820312 822.238281 40.59375 C 846.691406 45.652344 870.128906 52.402344 893.371094 61.535156 C 938.554688 79.28125 981.917969 107.308594 1016.585938 141.929688 C 1052.585938 177.878906 1081.011719 218.617188 1101.195312 265.714844 C 1120.390625 310.503906 1131.203125 361.132812 1131.203125 410.203125 C 1131.203125 411.457031 1131.203125 412.707031 1131.203125 413.960938 C 1131.203125 414.554688 1131.421875 415.003906 1131.746094 415.328125 C 1131.765625 415.347656 1131.785156 415.367188 1131.800781 415.386719 C 1131.820312 415.402344 1131.839844 415.421875 1131.859375 415.4375 C 1132.179688 415.761719 1132.636719 415.980469 1133.226562 415.980469 C 1166.726562 415.980469 1200.226562 415.980469 1233.726562 415.980469 C 1233.722656 435.421875 1233.722656 454.863281 1233.722656 474.304688 Z M 1233.722656 474.304688 " fill-opacity="1" fill-rule="nonzero"/></g><path fill="#66d432" d="M 1105.875 365.742188 C 1102.5 341.246094 1096.898438 317 1088.277344 293.792969 C 1079.457031 270.058594 1068.871094 247.945312 1055.847656 226.238281 C 1043.453125 205.582031 1028.527344 184.964844 1011.445312 167.882812 C 993.316406 149.753906 974.414062 132.515625 953.042969 118.257812 C 932.902344 104.820312 911.828125 92.710938 889.351562 83.5625 C 843.59375 64.941406 793.378906 54.097656 743.769531 55.871094 C 693.796875 57.65625 645.410156 68.789062 600.003906 89.75 C 576.628906 100.539062 555.238281 114.078125 534.566406 129.359375 C 514.78125 143.984375 497.65625 161.457031 481.199219 179.613281 C 448.398438 215.804688 423.617188 262.042969 409.769531 308.757812 C 397.273438 350.921875 392.089844 394.175781 394.871094 438.058594 C 361.011719 438.058594 327.15625 438.058594 293.300781 438.058594 C 292.707031 438.058594 292.253906 438.277344 291.929688 438.597656 C 291.910156 438.613281 291.890625 438.632812 291.875 438.652344 C 291.855469 438.671875 291.839844 438.6875 291.820312 438.710938 C 291.496094 439.03125 291.28125 439.484375 291.28125 440.078125 C 291.28125 461.117188 291.28125 482.160156 291.28125 503.199219 C 291.28125 556.800781 291.28125 610.398438 291.28125 664 C 291.28125 735.882812 291.28125 807.761719 291.28125 879.644531 C 291.28125 955.523438 291.28125 1031.402344 291.28125 1107.28125 C 291.28125 1172.875 291.28125 1238.472656 291.28125 1304.070312 C 291.28125 1345.101562 291.28125 1386.136719 291.28125 1427.175781 C 291.28125 1434.101562 291.28125 1441.027344 291.28125 1447.953125 C 291.28125 1448.550781 291.496094 1449 291.820312 1449.320312 C 291.839844 1449.34375 291.851562 1449.359375 291.875 1449.378906 C 291.894531 1449.398438 291.910156 1449.417969 291.929688 1449.433594 C 292.25 1449.753906 292.703125 1449.976562 293.300781 1449.976562 C 316.171875 1449.976562 339.046875 1449.976562 361.921875 1449.976562 C 419.035156 1449.976562 476.140625 1449.976562 533.257812 1449.976562 C 607.332031 1449.976562 681.410156 1449.976562 755.492188 1449.976562 C 829.265625 1449.976562 903.039062 1449.976562 976.820312 1449.976562 C 1033.023438 1449.976562 1089.226562 1449.976562 1145.429688 1449.976562 C 1166.824219 1449.976562 1188.21875 1449.976562 1209.613281 1449.976562 C 1210.210938 1449.976562 1210.664062 1449.757812 1210.980469 1449.433594 C 1211.007812 1449.417969 1211.019531 1449.398438 1211.039062 1449.378906 C 1211.058594 1449.359375 1211.074219 1449.34375 1211.097656 1449.320312 C 1211.414062 1449 1211.636719 1448.550781 1211.636719 1447.953125 C 1211.636719 1426.914062 1211.636719 1405.875 1211.636719 1384.832031 C 1211.636719 1331.234375 1211.636719 1277.632812 1211.636719 1224.03125 C 1211.636719 1152.152344 1211.636719 1080.269531 1211.636719 1008.390625 C 1211.636719 932.511719 1211.636719 856.628906 1211.636719 780.753906 C 1211.636719 715.15625 1211.636719 649.5625 1211.636719 583.964844 C 1211.636719 542.929688 1211.636719 501.898438 1211.636719 460.863281 C 1211.636719 453.9375 1211.636719 447.011719 1211.636719 440.082031 C 1211.636719 439.488281 1211.417969 439.035156 1211.097656 438.710938 C 1211.074219 438.691406 1211.058594 438.675781 1211.039062 438.65625 C 1211.019531 438.636719 1211.007812 438.621094 1210.980469 438.601562 C 1210.664062 438.277344 1210.210938 438.0625 1209.613281 438.0625 C 1175.875 438.0625 1142.132812 438.0625 1108.390625 438.0625 C 1109.1875 413.777344 1109.210938 389.898438 1105.875 365.742188 Z M 1207.597656 442.089844 C 1207.597656 462.460938 1207.597656 482.828125 1207.597656 503.195312 C 1207.597656 556.796875 1207.597656 610.394531 1207.597656 663.996094 C 1207.597656 735.875 1207.597656 807.753906 1207.597656 879.636719 C 1207.597656 955.519531 1207.597656 1031.398438 1207.597656 1107.273438 C 1207.597656 1172.867188 1207.597656 1238.464844 1207.597656 1304.066406 C 1207.597656 1345.097656 1207.597656 1386.132812 1207.597656 1427.167969 C 1207.597656 1433.421875 1207.597656 1439.671875 1207.597656 1445.929688 C 1185.398438 1445.929688 1163.195312 1445.929688 1140.988281 1445.929688 C 1083.878906 1445.929688 1026.773438 1445.929688 969.65625 1445.929688 C 895.578125 1445.929688 821.5 1445.929688 747.425781 1445.929688 C 673.648438 1445.929688 599.871094 1445.929688 526.097656 1445.929688 C 469.890625 1445.929688 413.6875 1445.929688 357.484375 1445.929688 C 336.757812 1445.929688 316.035156 1445.929688 295.3125 1445.929688 C 295.3125 1425.5625 295.3125 1405.195312 295.3125 1384.828125 C 295.3125 1331.230469 295.3125 1277.628906 295.3125 1224.027344 C 295.3125 1152.144531 295.3125 1080.265625 295.3125 1008.382812 C 295.3125 932.503906 295.3125 856.625 295.3125 780.746094 C 295.3125 715.148438 295.3125 649.554688 295.3125 583.960938 C 295.3125 542.921875 295.3125 501.890625 295.3125 460.855469 C 295.3125 454.601562 295.3125 448.347656 295.3125 442.09375 C 329.210938 442.09375 363.105469 442.09375 397 442.09375 C 397.378906 442.09375 397.699219 442 397.96875 441.851562 C 398.605469 441.585938 399.082031 441 399.015625 440.074219 C 395.574219 390.113281 401.628906 340.53125 419.042969 293.515625 C 436.320312 246.863281 463.105469 201.957031 498.570312 166.484375 C 516.316406 148.738281 534.820312 133.132812 555.359375 119.441406 C 576.746094 105.183594 599.378906 94.054688 623.023438 84.066406 C 644.449219 75.011719 670.164062 68.144531 693.953125 64.746094 C 718.445312 61.246094 743.414062 58.425781 768.816406 60.242188 C 818.140625 63.765625 867.761719 75.546875 911.921875 98.480469 C 957.128906 121.957031 997.066406 153.710938 1028.609375 194.082031 C 1059.136719 233.144531 1082.167969 278.632812 1094.332031 327.292969 C 1098.972656 345.832031 1101.953125 364.742188 1103.84375 383 C 1105.808594 401.984375 1104.945312 421.046875 1104.289062 440.070312 C 1104.257812 440.847656 1104.601562 441.390625 1105.097656 441.703125 C 1105.113281 441.714844 1105.136719 441.730469 1105.15625 441.742188 C 1105.164062 441.746094 1105.171875 441.75 1105.179688 441.753906 C 1105.480469 441.960938 1105.851562 442.089844 1106.3125 442.089844 C 1140.070312 442.089844 1173.832031 442.089844 1207.597656 442.089844 Z M 1207.597656 442.089844 " fill-opacity="1" fill-rule="nonzero"/></svg>